# xmcd
#
# Track frame offsets:
#	150
#	19423
#	38972
#	57456
#	69752
#	84686
#	103610
#	119678
#	136914
#	155494
#	173088
#	196203
#	215880
#	234277
#	251307
#
# Disc length: 3526 seconds
#
# Revision: 1
# Processed by: cddbd v1.5.1PL0 Copyright (c) Steve Scherf et al.
# Submitted via: audiograbber 1.83.01
#
DISCID=d10dc40f
DTITLE=Valeria - Valeria
DYEAR=1900
DGENRE=Pop
TTITLE0=Синий иней
TTITLE1=Ночь нежна
TTITLE2=Птицы летят на юг
TTITLE3=Сон Dream
TTITLE4=две судьбы
TTITLE5=Самолёт
TTITLE6=Моя Москва
TTITLE7=Золотая рыбка
TTITLE8=Останься с облаками
TTITLE9=О том, что было
TTITLE10=Два островка
TTITLE11=Кап-капхкап
TTITLE12=Яе позабудь былые увлечеяьн
TTITLE13=Обычяые дела
TTITLE14=Яе соя (Ветер ли старое имн развенл)
EXTD=
EXTT0=
EXTT1=
EXTT2=
EXTT3=
EXTT4=
EXTT5=
EXTT6=
EXTT7=
EXTT8=
EXTT9=
EXTT10=
EXTT11=
EXTT12=
EXTT13=
EXTT14=
PLAYORDER=
